<?xml version="1.0" encoding="UTF-8"?>
<svg xmlns="http://www.w3.org/2000/svg" viewBox="0 0 256 256" width="256" height="256">
  <rect width="256" height="256" rx="48" ry="48" fill="#246394"/>
  <path d="M60.24 201.70L122.28 200.38L123.16 193.12L103.36 191.14C103.58 190.04 103.58 188.94 103.80 187.84C104.02 185.86 104.46 183.22 104.46 179.92L104.46 141.20L107.10 138.56L116.56 138.56L141.42 176.18C143.84 179.92 146.04 183.22 147.58 186.08C150.66 192.02 152.86 196.42 153.96 200.16L154.84 201.04L197.08 201.04L197.96 192.90L195.54 192.68C193.56 192.46 191.58 192.24 188.94 190.48C186.30 188.94 183.22 185.64 178.82 179.26L146.92 131.30L146.92 127.56C152.42 124.04 159.46 118.98 164.74 112.60C170.02 106.44 173.98 98.74 173.98 89.72C173.98 80.70 170.24 71.68 161.66 65.08C153.08 58.48 139.66 54.30 120.30 54.30L58.04 54.30L58.04 60.90C65.96 62.66 70.36 63.76 72.56 66.18C74.76 68.60 74.98 71.68 74.98 76.96L74.98 179.92C74.98 187.62 69.26 192.46 60.24 193.56ZM104.46 127.12L104.46 68.38L107.10 65.74L112.60 65.74C133.06 65.74 141.64 78.94 141.64 96.54C141.64 106.88 138.78 114.36 134.82 119.42C130.86 124.70 125.14 127.12 120.52 127.12Z" fill="#f2f2f2"/>
</svg>
